# xmcd
#
# Track frame offsets:
#	150
#	12162
#	27315
#	44699
#	60940
#	80370
#	94844
#	108099
#	119799
#	136729
#	151240
#	169404
#
# Disc length: 2417 seconds
#
# Revision: 0
# Processed by: cddbd v1.4PL0 Copyright (c) Steve Scherf et al.
# Submitted via: EasyCDDAExtractor 5.0.5.1
#
DISCID=94096f0c
DTITLE=Mark Winston Kirk - Untold Story
DYEAR=1998
DGENRE=Texas Country
TTITLE0=Friends Behind Bars
TTITLE1=Hey Señorita
TTITLE2=I'll Swallow My Pride
TTITLE3=It's All About To Change
TTITLE4=If You Want To Call It Love
TTITLE5=Here I Go Again
TTITLE6=We Weren't Through
TTITLE7=That's What I Tell The Guys
TTITLE8=Only Passing By
TTITLE9=For Better Or For Worse
TTITLE10=That's What Friends Are For
TTITLE11=Tell Me Why
EXTD=
EXTT0=
EXTT1=
EXTT2=
EXTT3=
EXTT4=
EXTT5=
EXTT6=
EXTT7=
EXTT8=
EXTT9=
EXTT10=
EXTT11=
PLAYORDER=
